<svg width="82" height="82" viewBox="0 0 82 82" fill="none" xmlns="http://www.w3.org/2000/svg">
<path fill-rule="evenodd" clip-rule="evenodd" d="M41 79.4375C60.8133 79.4375 76.875 63.3758 76.875 43.5625C76.875 23.7493 60.8133 7.6875 41 7.6875C21.1868 7.6875 5.125 23.7493 5.125 43.5625C5.125 49.9967 6.81881 56.0352 9.78483 61.2566L5.125 79.4375L23.8693 75.091C28.9598 77.8626 34.7959 79.4375 41 79.4375ZM41 73.9184C57.7652 73.9184 71.3559 60.3277 71.3559 43.5625C71.3559 26.7976 57.7652 13.2067 41 13.2067C24.235 13.2067 10.6442 26.7976 10.6442 43.5625C10.6442 50.0356 12.6703 56.0355 16.1228 60.9624L13.4038 71.1586L23.7798 68.5646C28.6728 71.9412 34.6055 73.9184 41 73.9184Z" fill="#BFC8D0"/>
<path d="M71.75 41C71.75 57.9827 57.9827 71.75 41 71.75C34.5225 71.75 28.5127 69.7471 23.5562 66.327L13.0455 68.9546L15.7998 58.6259C12.3024 53.6349 10.25 47.5572 10.25 41C10.25 24.0172 24.0172 10.25 41 10.25C57.9827 10.25 71.75 24.0172 71.75 41Z" fill="url(#paint0_linear_493_13102)"/>
<path fill-rule="evenodd" clip-rule="evenodd" d="M41 76.875C60.8133 76.875 76.875 60.8133 76.875 41C76.875 21.1868 60.8133 5.125 41 5.125C21.1868 5.125 5.125 21.1868 5.125 41C5.125 47.4342 6.81881 53.4727 9.78483 58.6941L5.125 76.875L23.8693 72.5285C28.9598 75.3001 34.7959 76.875 41 76.875ZM41 71.3559C57.7652 71.3559 71.3559 57.7652 71.3559 41C71.3559 24.235 57.7652 10.6442 41 10.6442C24.235 10.6442 10.6442 24.235 10.6442 41C10.6442 47.4731 12.6703 53.473 16.1228 58.3999L13.4038 68.5961L23.7798 66.0021C28.6728 69.3787 34.6055 71.3559 41 71.3559Z" fill="white"/>
<path d="M32.0312 24.3438C31.1784 22.6306 29.8698 22.7822 28.548 22.7822C26.1857 22.7822 22.502 25.612 22.502 30.8784C22.502 35.1944 24.4038 39.9192 30.8125 46.9865C36.9974 53.8074 45.1241 57.3357 51.8706 57.2158C58.6172 57.0956 60.0053 51.29 60.0053 49.3292C60.0053 48.4602 59.4659 48.0267 59.0946 47.9088C56.7955 46.8056 52.5551 44.7497 51.5903 44.3633C50.6255 43.9771 50.1217 44.4996 49.8086 44.7838C48.9338 45.6177 47.1995 48.0748 46.6055 48.6276C46.0117 49.1803 45.1264 48.9005 44.7579 48.6916C43.4021 48.1476 39.7262 46.5125 36.7962 43.6719C33.1723 40.1593 32.9596 38.9508 32.277 37.8748C31.7309 37.0143 32.1317 36.4862 32.3316 36.2553C33.1124 35.3546 34.1904 33.9637 34.674 33.2726C35.1572 32.5814 34.7736 31.5318 34.5433 30.8784C33.5529 28.0673 32.7136 25.7145 32.0312 24.3438Z" fill="white"/>
<defs>
<linearGradient id="paint0_linear_493_13102" x1="67.9062" y1="17.9375" x2="10.25" y2="71.75" gradientUnits="userSpaceOnUse">
<stop stop-color="#5BD066"/>
<stop offset="1" stop-color="#27B43E"/>
</linearGradient>
</defs>
</svg>
